<?xml version="1.0" encoding="UTF-8"?>
<svg id="Capa_1" xmlns="http://www.w3.org/2000/svg" version="1.1" viewBox="0 0 16 16">
  <!-- Generator: Adobe Illustrator 29.0.0, SVG Export Plug-In . SVG Version: 2.1.0 Build 186)  -->
  <defs>
    <style>
      .st0 {
        fill: #ff8000;
      }
    </style>
  </defs>
  <path class="st0" d="M2,2c-.9,0-1.7.6-1.9,1.6l7.9,4.9,7.9-4.9c-.2-.9-1-1.6-1.9-1.6H2ZM0,11.8v-7.1l5.8,3.5L0,11.8ZM6.8,8.8L.2,12.9c.3.7,1,1.1,1.8,1.1h6.3c-.2-.5-.3-1-.3-1.5,0-1.3.6-2.6,1.6-3.4l-.4-.2-1.2.8-1.2-.8ZM16,9.7v-5l-5.8,3.5.3.2c.6-.3,1.3-.5,2-.5,1.4,0,2.7.7,3.5,1.7"/>
  <path class="st0" d="M15.8,12.2c0,1.2-.6,2-1.6,2s-1-.2-1.1-.6h0c-.1.4-.5.6-1,.6-.8,0-1.3-.5-1.3-1.4v-.5c0-.8.5-1.4,1.3-1.4s.9.3,1,.6h0v-.6h.9v2.2c0,.3.2.4.4.4s.6-.4.6-1.4h0c0-1.4-.9-2.4-2.5-2.4h0c-1.6,0-2.6,1.1-2.6,2.7v.2c0,1.9,1.2,2.7,2.6,2.7h0c.5,0,.9,0,1.2-.2v.7c-.2.1-.6.2-1.2.2h0c-1.9,0-3.4-1.2-3.4-3.4v-.2c0-2.1,1.4-3.4,3.5-3.4h0c2.1,0,3.3,1.4,3.3,3v.2ZM11.8,12.5v.2c0,.6.2.8.6.8s.6-.2.6-.7v-.4c0-.5-.3-.7-.6-.7s-.6.2-.6.8"/>
</svg>