<?xml version="1.0" encoding="UTF-8"?>
<svg id="Capa_1" xmlns="http://www.w3.org/2000/svg" version="1.1" viewBox="0 0 286.4 275.1">
  <!-- Generator: Adobe Illustrator 29.0.0, SVG Export Plug-In . SVG Version: 2.1.0 Build 186)  -->
  <defs>
    <style>
      .st0 {
        fill: #020202;
      }

      .st1 {
        fill: #ff8000;
      }
    </style>
  </defs>
  <path class="st0" d="M287.3,0l-.5,274.8-.8.5H.8c-.9-.4-1.4-1.1-1.3-2V2.1C-.7,1.1,0,.7.5,0h286.8,0ZM137.3,13.2H13.4l-1.4,209.6h36.9l3.2-33.4c0-.4.9-1.8,1.2-1.8h14.1c0,0,.7,1.3.6,1.6l-11,33.5h53.2l-11.1-35.1h15l4.2,35.1h35.2v-23.1c0,0,1.1-1.1,1.2-1.1h27.8s.5-.4.5-.5v-19.5l26.1-.3.7-18.9c0-.3.3-.8.5-.8h64.2V13.2h-124.2v43.1c0,0-1.5,1.4-1.6,1.4h-11.3V13.2h0ZM12.7,262.8h260.5c.1,0,.8-.8,1-1v-89c0-.1-.6-.6-.7-.6h-51v17.2c0,.1-1.8,1.8-1.9,1.8h-25.2v19.5c0,0-1.1,1.1-1.2,1.1h-28.4v24.5H13.2c-1.2,2.2-.7,5.1-.9,7.6,0,.6-.3,1.2-.4,1.9-.2,5.6,0,11.4.7,17h0Z"/>
  <path class="st1" d="M137.3,13.2v44.5h11.3c.1,0,1.6-1.3,1.6-1.4V13.2h124.2v145.5h-64.2c-.2,0-.5.5-.5.8l-.7,18.9-26.1.3v19.5s-.5.5-.5.5h-27.8c0,0-1.2,1.1-1.2,1.1v23.1h-35.1l-4.2-35.1h-15l11.1,35.1h-53.2l11-33.5c0-.3-.5-1.6-.6-1.6h-14.1c-.3,0-1.2,1.3-1.2,1.8l-3.2,33.4H12L13.4,13.2h123.9ZM185,99l-15.9-35.8-1.7-.4-50,.2-16,36h83.5ZM60.7,149.1c-3.7.1-7.9.2-11.6.6s-7.7.5-9.5,3.8c-2.6,5-3,21.5-.6,26.5.9,1.8,2.6,3.4,4.8,3.6,4.2.4,9.3-.1,13.6,0,21.1.4,42.2.4,63.3.3,4-.8,5.4-3.5,6-7,.8-4.5,1.1-18.1-.9-22-.9-1.9-3.6-4.5-5.9-4.9-7.7-1.1-18.7-.5-26.8-.6-10.8-.2-21.7-.6-32.6-.2h0Z"/>
  <path class="st1" d="M12.7,262.8c-.7-5.6-.9-11.3-.7-17,0-.7.3-1.3.4-1.9.1-2.5-.4-5.4.9-7.6h152.6v-24.5h28.4c0,0,1.2-1.1,1.2-1.1v-19.5h25.2c.1,0,1.9-1.6,1.9-1.8v-17.2h51c0,0,.6.5.7.6v89c-.2.2-.9,1-1,1H12.7Z"/>
  <path class="st0" d="M60.7,149.1c10.9-.4,21.8,0,32.6.2,8.1.2,19.1-.4,26.8.6,2.3.3,5,3,5.9,4.9,1.9,3.9,1.6,17.5.9,22-.6,3.4-2,6.2-6,7-21.1,0-42.3,0-63.3-.3-4.3,0-9.4.4-13.6,0-2.2-.2-4-1.7-4.8-3.6-2.4-5-2-21.6.6-26.5,1.7-3.3,6-3.5,9.5-3.8,3.5-.3,7.9-.4,11.6-.6h0ZM95.9,164.8h-26.3c-1.1,0-.9,4.4-.9,5.2h27.2v-5.2Z"/>
  <polygon class="st0" points="185 99 101.5 99 117.5 63 167.4 62.9 169.1 63.2 185 99"/>
  <path class="st1" d="M95.9,164.8v5.2h-27.2c0-.8-.3-5.2.9-5.2h26.3Z"/>
</svg>