<?xml version="1.0" encoding="UTF-8"?>
<svg id="Capa_1" xmlns="http://www.w3.org/2000/svg" version="1.1" viewBox="0 0 1028 841.89">
  <!-- Generator: Adobe Illustrator 29.0.0, SVG Export Plug-In . SVG Version: 2.1.0 Build 186)  -->
  <defs>
    <style>
      .st0 {
        fill: #020202;
      }

      .st1 {
        fill: #ff8000;
      }
    </style>
  </defs>
  <path class="st0" d="M712.47,140.61l-.68,408.83-1.1.82h-393.13c-1.2-.57-1.95-1.59-1.81-2.99V143.7c-.23-1.42.75-2.07,1.47-3.09h395.25ZM505.73,160.28h-170.76l-1.92,311.87h50.84l4.34-49.63c-.08-.68,1.28-2.66,1.65-2.66h19.43c.13,0,.9,2,.78,2.4l-15.17,49.89h73.39l-15.35-52.3h20.63l5.76,52.3h48.45v-34.31c0-.12,1.56-1.68,1.68-1.68h38.37c.05,0,.72-.67.72-.72v-29.03l35.98-.48.96-28.07c-.02-.39.45-1.2.72-1.2h88.5v-216.39h-171.24v64.05c0,.15-2.01,2.16-2.16,2.16h-15.59v-66.21ZM334.01,531.64h359.03c.13,0,1.16-1.16,1.43-1.45v-132.41c-.1-.23-.87-.97-.95-.97h-70.27v25.67c0,.19-2.45,2.64-2.64,2.64h-34.78v29.03c0,.12-1.56,1.68-1.68,1.68h-39.09v36.46h-210.33c-1.68,3.24-1.01,7.6-1.2,11.27-.05.93-.46,1.84-.49,2.86-.32,8.4-.03,16.9.98,25.21Z"/>
  <path class="st0" d="M790.66,599.77c.18,1.56.2,5.17,0,6.72-.09.75-1.55,5.28-2.16,5.28h-26.62v23.03l27.36,1.66c1.57,1.04,1.27,15.56-.02,18.01h-27.34v25.43h26.14c.07,0,.66.6,1.1.84.36.2,1.06.07,1.06.12v16.07c0,.12-1.56,1.68-1.68,1.68h-44.37v-104.6h44.37c1.01,1.42,1.96,4.08,2.16,5.76Z"/>
  <path class="st0" d="M237.12,594.02h45.57v17.75h-27.34c-.14,1.5-.83,2.45-.99,4.05-.37,3.87-.49,14.09,0,17.8.32,2.4,2.46,2.46,4.56,2.63,6.08.5,12.35-1.02,18.24-1.02,1.7,0,3.64.93,5.52.52v18.47c0,.05-.67.72-.72.72h-26.38c-.08,0-1.2,1.11-1.2,1.2v42.46h-17.27v-104.6Z"/>
  <path class="st0" d="M688.25,594.02c1.09.32,10.79,16.51,12.79,18.87.32.38.45.96,1.12.8,4.43-6.56,8.47-13.51,13.44-19.68h17.51v104.6h-16.31l-1.44-73.89-9.87,15.31-3.38,3.36c-6.69-4.4-8.76-13.08-14.08-18.68v72.21c0,2.68-17.75,2.82-17.75-.48v-101.72c0-.05.67-.72.72-.72h17.27Z"/>
  <path class="st0" d="M457.29,698.61v-36.22c0-.12-1.01-1.8-1.23-2.13-2.7-4.01-10.2-6.29-14.84-5.79-.61.07-4.55,1.2-4.55,1.44v42.7h-16.79v-103.88c0-.34.8-.65,1.2-.72,5.45-.95,11.74-.43,17.25-1.46,8.88.47,19.21.4,26.39,6.27,10.03,8.2,13.56,25.79,8.82,37.58-1.19,2.96-4.67,7.3-4.77,10.14-.14,4.04,4.13,8.93,5.1,13.17,1.7,7.4,2.25,24.7,1.65,32.41-.09,1.19-.75,6.48-2.15,6.48h-16.07ZM456.16,632.23c2.86-2.88,3.01-7.06,2.36-10.89-1.52-8.82-14.16-10.24-21.28-8.52-1.04,3.14-1.59,21.39.36,22.72.23.16,3.46.64,4.11.69,4.48.36,11.15-.69,14.45-4Z"/>
  <path class="st0" d="M391.57,698.61v-34.79c0-.8-1.73-3.54-2.39-4.33-3.56-4.3-11.54-6.6-16.65-4.15-.41.19-2.07.95-2.07,1.29v41.98h-16.31v-104.6c12.4-2.14,28.87-3.66,40.3,2.63,12.15,6.69,17.95,24.56,14.05,37.58-.93,3.12-5.94,10.51-5.93,12.81,0,2.66,4.06,8.35,4.97,11.37,2.09,6.95,2.75,29.59,1.65,36.96-.11.76-.77,3.25-1.55,3.25h-16.07ZM372.23,612.33c-.58.2-.89.79-1.06,1.34-.88,2.73-1.22,19.64.21,21.43,1.9,2.36,12.26.79,15.05-.4,8.48-3.61,9.01-15.79,1.15-20.12-3.25-1.79-11.99-3.37-15.35-2.24Z"/>
  <polygon class="st0" points="559.46 594.02 559.93 634.8 580.56 634.32 580.56 594.02 596.87 594.02 596.87 698.61 580.56 698.61 578.64 654.47 561.38 654.47 559.46 698.61 543.15 698.61 543.15 594.02 559.46 594.02"/>
  <path class="st0" d="M629.85,593.18c17.18-2.18,28.32,9.27,30.33,25.55,1.83,14.78,1.98,34.99.99,49.91-1.87,27.93-34.57,47.04-50.77,17.64-6.21-11.27-4.96-42.43-4.43-56.06.62-16.01,4.67-34.6,23.89-37.04ZM634.04,610.59c-4.16-.02-7.76,4.1-9.36,7.65-2.46,5.45-1.67,11.93-1.92,17.75-.41,9.9-1.35,27.93,1.19,37.2,3.48,12.68,18.85,9.86,19.93-2.63-.66-14.46.39-29.82-.48-44.18-.33-5.43-2.38-15.76-9.37-15.79Z"/>
  <path class="st0" d="M342.17,611.77h-28.78v22.31c8.71,4.47,19.31.59,28.78,1.68v18.71h-28.06c-.05,0-.72.67-.72.72v24.71h27.1c.12,0,1.68,1.56,1.68,1.68v17.03h-44.85c-.18,0-1.16-1.21-1.32-1.56-.68-33.6-.45-67.47-.11-101.1.33-.33,1.77-1.93,1.91-1.93h43.65c.05,0,.72.67.72.72v17.03Z"/>
  <path class="st0" d="M531.16,611.77h-27.34c-.19,0-1.42,3.22-1.46,3.58-.25,1.95-.17,18,.27,18.97.11.25,1.33,1.45,1.43,1.45h26.38c.05,0,.72.67.72.72v17.75c0,.05-.67.72-.72.72h-28.06v24.95h27.1c.12,0,1.68,1.56,1.68,1.68v17.03h-45.09v-104.6h44.37c.05,0,.72.67.72.72v17.03Z"/>
  <path class="st1" d="M505.73,160.28v66.21h15.59c.15,0,2.16-2.01,2.16-2.16v-64.05h171.24v216.39h-88.5c-.27,0-.74.81-.72,1.2l-.96,28.07-35.98.48v29.03c0,.05-.67.72-.72.72h-38.37c-.12,0-1.68,1.56-1.68,1.68v34.31h-48.45l-5.76-52.3h-20.63l15.35,52.3h-73.39l15.17-49.89c.12-.41-.65-2.4-.78-2.4h-19.43c-.38,0-1.73,1.99-1.65,2.66l-4.34,49.63h-50.84l1.92-311.87h170.76ZM571.45,287.91l-21.88-53.2-2.32-.56-68.87.24-22.05,53.52h115.12ZM400.11,362.42c-5.09.18-10.95.3-15.97.82s-10.67.75-13.07,5.64c-3.61,7.37-4.2,32.05-.85,39.45,1.24,2.73,3.64,5.02,6.69,5.3,5.78.54,12.77-.17,18.75-.04,29.03.63,58.19.56,87.29.51,5.52-1.15,7.52-5.25,8.33-10.38,1.06-6.7,1.47-26.98-1.2-32.75-1.3-2.81-4.95-6.73-8.13-7.22-10.63-1.64-25.79-.74-36.92-.97-14.91-.31-29.95-.88-44.93-.36Z"/>
  <path class="st1" d="M334.01,531.64c-1.01-8.31-1.29-16.81-.98-25.21.04-1.02.45-1.93.49-2.86.19-3.67-.48-8.03,1.2-11.27h210.33v-36.46h39.09c.12,0,1.68-1.56,1.68-1.68v-29.03h34.78c.19,0,2.64-2.45,2.64-2.64v-25.67h70.27c.08,0,.85.74.95.97v132.41c-.27.29-1.3,1.45-1.43,1.45h-359.03Z"/>
  <path class="st0" d="M400.11,362.42c14.98-.52,30.02.05,44.93.36,11.14.23,26.3-.67,36.92.97,3.18.49,6.83,4.41,8.13,7.22,2.66,5.77,2.25,26.05,1.2,32.75-.81,5.13-2.81,9.24-8.33,10.38-29.1.05-58.27.12-87.29-.51-5.98-.13-12.97.58-18.75.04-3.05-.28-5.45-2.58-6.69-5.3-3.36-7.41-2.76-32.08.85-39.45,2.39-4.89,8.24-5.14,13.07-5.64s10.88-.65,15.97-.82ZM448.65,385.79h-36.21c-1.55,0-1.22,6.54-1.2,7.68h37.41v-7.68Z"/>
  <polygon class="st0" points="571.45 287.91 456.33 287.91 478.37 234.39 547.25 234.15 549.57 234.7 571.45 287.91"/>
  <path class="st1" d="M448.65,385.79v7.68h-37.41c-.02-1.14-.35-7.68,1.2-7.68h36.21Z"/>
</svg>