<?xml version="1.0" encoding="UTF-8"?>
<svg id="Capa_1" xmlns="http://www.w3.org/2000/svg" version="1.1" viewBox="0 0 967.3 314.4">
  <!-- Generator: Adobe Illustrator 29.0.0, SVG Export Plug-In . SVG Version: 2.1.0 Build 186)  -->
  <defs>
    <style>
      .st0 {
        fill: #020202;
      }

      .st1 {
        fill: #ff8000;
      }
    </style>
  </defs>
  <path class="st0" d="M319.8,18.9l-.5,274.8-.8.5H33.2c-.9-.4-1.4-1.1-1.3-2V21c-.2-1,.6-1.4,1.1-2.1h286.8ZM169.8,32.2H45.9l-1.4,209.6h36.9l3.2-33.4c0-.4.9-1.8,1.2-1.8h14.1c0,0,.7,1.3.6,1.6l-11,33.5h53.2l-11.1-35.1h15l4.2,35.1h35.1v-23.1c0,0,1.1-1.1,1.2-1.1h27.8s.5-.4.5-.5v-19.5l26.1-.3.7-18.9c0-.3.3-.8.5-.8h64.2V32.2h-124.2v43.1c0,0-1.5,1.4-1.6,1.4h-11.3v-44.5h0ZM45.2,281.8h260.5c.1,0,.8-.8,1-1v-89c0-.1-.6-.6-.7-.6h-51v17.2c0,.1-1.8,1.8-1.9,1.8h-25.2v19.5c0,0-1.1,1.1-1.2,1.1h-28.4v24.5H45.7c-1.2,2.2-.7,5.1-.9,7.6,0,.6-.3,1.2-.4,1.9-.2,5.6,0,11.4.7,17h0Z"/>
  <path class="st1" d="M169.8,32.2v44.5h11.3c.1,0,1.6-1.3,1.6-1.4v-43.1h124.2v145.5h-64.2c-.2,0-.5.5-.5.8l-.7,18.9-26.1.3v19.5s-.5.5-.5.5h-27.8c0,0-1.2,1.1-1.2,1.1v23.1h-35.1l-4.2-35.1h-15l11.1,35.1h-53.2l11-33.5c0-.3-.5-1.6-.6-1.6h-14.1c-.3,0-1.2,1.3-1.2,1.8l-3.2,33.4h-36.9l1.4-209.6h123.9,0ZM217.4,118l-15.9-35.8-1.7-.4-50,.2-16,36h83.5ZM93.1,168c-3.7.1-7.9.2-11.6.6s-7.7.5-9.5,3.8c-2.6,5-3.1,21.5-.6,26.5.9,1.8,2.6,3.4,4.8,3.6,4.2.4,9.3-.1,13.6,0,21.1.4,42.2.4,63.3.3,4-.8,5.4-3.5,6-7,.8-4.5,1.1-18.1-.9-22-.9-1.9-3.6-4.5-5.9-4.9-7.7-1.1-18.7-.5-26.8-.6-10.8-.2-21.7-.6-32.6-.2h0Z"/>
  <path class="st1" d="M45.2,281.8c-.7-5.6-.9-11.3-.7-17,0-.7.3-1.3.4-1.9.1-2.5-.3-5.4.9-7.6h152.6v-24.5h28.4c0,0,1.2-1.1,1.2-1.1v-19.5h25.2c.1,0,1.9-1.6,1.9-1.8v-17.2h51c0,0,.6.5.7.6v89c-.2.2-.9,1-1,1H45.2Z"/>
  <path class="st0" d="M93.1,168c10.9-.4,21.8,0,32.6.2,8.1.2,19.1-.4,26.8.6,2.3.3,5,3,5.9,4.9,1.9,3.9,1.6,17.5.9,22-.6,3.4-2,6.2-6,7-21.1,0-42.3,0-63.3-.3-4.3,0-9.4.4-13.6,0-2.2-.2-4-1.7-4.8-3.6-2.4-5-2-21.6.6-26.5,1.7-3.3,6-3.5,9.5-3.8s7.9-.4,11.6-.6h0ZM128.4,183.8h-26.3c-1.1,0-.9,4.4-.9,5.2h27.2v-5.2Z"/>
  <polygon class="st0" points="217.4 118 133.9 118 149.9 82 199.9 81.8 201.6 82.2 217.4 118"/>
  <path class="st1" d="M128.4,183.8v5.2h-27.2c0-.8-.3-5.2.9-5.2h26.3Z"/>
  <g>
    <path d="M386.1,21.7v78h52.9V21.7h32.1v202.9h-32.1v-84.9h-52.9v84.9h-32.1V21.7h32.1Z"/>
    <path d="M629,121.1c0,66.6-28.1,106.8-69.6,106.8s-66.9-45.5-66.9-103.4,27.3-106.1,69.1-106.1,67.4,46.6,67.4,102.7ZM526.4,123.7c0,39.7,13.1,67.8,34.5,67.8s34.1-29.3,34.1-68.7-12.1-67.8-34.2-67.8-34.5,29.3-34.5,68.8Z"/>
    <path d="M770.2,147c-.7-24.6-1.3-53.8-1.2-83.6h-.6c-4.5,26-10.5,54.8-15.8,78.7l-17.4,79.1h-25l-15.3-78.4c-4.6-23.9-9.3-52.7-12.8-79.4h-.4c-.7,27.6-1.5,58.9-2.3,84.2l-2.6,77h-29.7l9.1-202.9h42.8l13.9,67.8c4.5,23.3,8.9,48.8,12,72.5h.7c3.9-23.5,8.7-50.2,13.5-72.8l15.1-67.5h42l7.6,202.9h-31.2l-2.2-77.6Z"/>
    <path d="M912.8,138.8h-52.3v48.2h58.4v37.6h-90.5V21.7h87.5v37.6h-55.4v42.3h52.3v37.2Z"/>
  </g>
  <g>
    <path d="M354,238.1c9.8-.6,21.5-1.1,34.4-1.1,23.2,0,39.7,2.3,50.7,6.7,11.1,4.4,17.6,10.7,17.6,19.4s-6.3,16-18,21c-11.7,5.1-31,7.8-55.3,7.8s-21.2-.2-29.3-.6v-53.2ZM370.1,285.9c4.1.3,10,.4,16.3.4,34.5,0,53.3-8.3,53.3-22.9.2-12.8-16.5-20.8-50.7-20.8s-14.7.3-18.9.7v42.7Z"/>
    <path d="M542.5,266.1h-48.7v19.5h54.2v5.9h-70.4v-54h67.6v5.9h-51.4v17.1h48.7v5.8Z"/>
    <path d="M566.8,282.9c7.2,1.9,17.8,3.5,29,3.5,16.5,0,26.2-3.8,26.2-9.2s-6.7-7.9-23.6-10.7c-20.4-3.1-33.1-7.7-33.1-15.3s16.2-14.7,40.5-14.7,22.1,1.3,27.7,2.6l-4.5,5.7c-4.1-1-12.4-2.6-23.8-2.6-17.1,0-23.6,4.4-23.6,8.1s7.6,7.5,24.9,10.4c21.2,3.5,31.9,7.9,31.9,15.9s-14.3,15.6-43.8,15.6-25.3-1.5-31.9-3.4l4.1-5.9Z"/>
    <path d="M676.8,237.4v54h-16.2v-54h16.2Z"/>
    <path d="M800.3,289c-7.2,1.1-21.5,3-38.4,3s-34.5-2.1-46.8-7.1c-10.8-4.5-17.5-11.7-17.5-20.1.2-16.1,25.8-27.9,67.8-27.9s25.8,1.4,31.2,2.5l-3.9,5.7c-6.7-1.3-15-2.3-27.7-2.3-30.5,0-50.3,8.2-50.3,21.7s19.1,21.8,48.3,21.8,17.8-.6,21.5-1.4v-16.1h-25.4v-5.6h41.2v26Z"/>
    <path d="M825,291.4v-54h17.6l40.1,27.3c9.3,6.3,16.5,12,22.5,17.6h.4c-1.5-7.3-1.9-13.9-1.9-22.3v-22.6h15.2v54h-16.3l-39.7-27.4c-8.7-6-17.1-12.2-23.4-18h-.6c.9,6.9,1.3,13.4,1.3,22.4v23.1h-15.2Z"/>
  </g>
</svg>