<?xml version="1.0" encoding="UTF-8"?>
<svg id="Capa_1" xmlns="http://www.w3.org/2000/svg" version="1.1" viewBox="0 0 286.4 275.1">
  <!-- Generator: Adobe Illustrator 29.0.0, SVG Export Plug-In . SVG Version: 2.1.0 Build 186)  -->
  <path d="M203.3,50.5c.3.3,5.6.7,8.3,2.8,2.2,1.7,15.1,21.8,15.9,24.5,1.2,4.1-.9,7.4-.4,9.4s3.3,2.8,4.2,4.3c2.8,4.4,2.6,31.1-.9,35.3-1,1.2-3.4,1.7-3.5,2.4-.3,2,1.9,5.7.9,9.7s-13,21.3-15.1,23.4c-4.2,4.2-9,3.3-9.4,3.6s0,3.5-.8,5.2c-2.2,4.9-27.4,17.7-33.5,17.5-1.9,0-4.7-1.2-5.8-1s-2.8,4.7-8.1,5.5c-4.9.7-25.8.7-30.5-.1-5.1-.9-5.3-4.1-6.8-5.2s-4.6.9-6.3.9c-6.3,0-31.2-12.5-33.5-17.5s-.6-5-.8-5.2-4,0-6.3-1-17-22.1-18-25.3c-1.5-4.5,1-8.1.6-10.3s-5.1-3.2-5.9-8.4c-.7-4.6-.8-21.7.1-26s5.2-6.1,5.6-7.6-1-4.1-.9-6.2c.1-3.4,12.5-24,15.4-26.8s9-3.4,9.4-3.7.5-4,1.3-5.6c1.6-3,26.2-16.4,30.1-17,3.2-.4,7.1,1.1,8.7.7s3-2.8,5-3.7c5.7-2.7,31.1-2.5,36.8.3s2.9,3,4.3,3.4,3.8-.9,5.8-.8c5.4,0,30.8,12.8,33,17.1.8,1.5,1.1,5.4,1.3,5.6ZM130.5,45.4c-27.5,2.8-52,24.1-58,48.6-13.4,54.6,51.1,98,103.8,68.7,63.4-35.3,30.1-125.1-45.8-117.3Z"/>
  <path d="M148.6,202.2l-28.4,58.2c-1.8-.1-3.1-.5-4.4-1.6-5.7-5.2-11.9-19.9-17-26.4-2.5-1.5-27.2,5.6-32.4,6s-2.8-.3-4.1-.8l-.2-1.2,19.9-49.5c.9-.6,17.4,9.2,20.1,10.2,4.5,1.6,8,1,11.9,1.8s6.8,3.4,8.2,3.4h26.3Z"/>
  <path d="M219.9,242c-3,1.8-32.1-9.4-37.9-9l-15,28.2-5.4.8-17.8-38.7c2.7-7,6.1-15,10.5-20.9,4.6.4,8.2-2.7,11.9-3.6s7-.3,11.2-1.6,17.7-10.4,19.9-9.1c3.4,2,18.6,43.6,23.4,49.6.6,1-.1,4.1-.7,4.4Z"/>
  <path d="M138.5,52.6c79.2-1.8,83.3,107.4,5.7,111.5-82.1,4.3-86.5-109.6-5.7-111.5ZM118.8,109.6c7.5-8.7,20.5-14.7,15.9-27.7-2.8-8.2-12.2-9.4-20.3-8.5s-13.3,3.2-8.5,10.8c17.4-8.3,25.4,1.5,11.9,15-5.6,5.5-16.7,9.9-14.9,18.6h33.7v-8.2h-17.9ZM157.3,73.5c-18.1,2.8-19.2,37.7-2.7,43.8,30.2,11.2,35.6-49,2.7-43.8ZM137.7,121.4c-3.7,1.6-8.6-1.9-7.9,3.6,3.6-1.4,8.5,2,7.9-3.6ZM122.8,144.1c-1.6-3.3-3.6-15.1-5.4-17.3-6.1-7.5-11.3,13.9-11.4,17.3,7.7,1.2,1.1-5.7,9.4-4.6,3.6.5.1,6.5,7.4,4.6ZM125.8,125.9v18.2c0,.2,3.8.1,4,0,.6-.5-.8-11.8.5-11.8,1.2,1.5,5.9,11.3,6.6,11.7,1.1.6,3.4,0,4.8.1v-18.2c-7.3-1.7-2.3,6.5-4.5,10.9-3.5-4-4.3-12.4-11.4-10.9ZM151.3,126.1c-10.7,2.2-8.5,21.8,6.3,17.6,9.3-2.7,7.4-20.4-6.3-17.6ZM177.4,129.6c3.2-3-7.3-6.2-10.8-1.3-4.8,6.8,7.8,9.1,7.8,9.9,0,3.6-5.9,1.5-8,2.7-5,2.9,8.8,5.8,11.4.5,3.8-7.8-6.4-7.4-7.4-9.5-2-4,6.1-1.5,6.9-2.3Z"/>
  <path d="M160.2,80.7c10.5-1.8,9.8,24.9,4.7,28.9-11.7,9.4-15-27.1-4.7-28.9Z"/>
  <path d="M150.8,140.2c-2-1.9-2.2-9.5,1.5-10.5,10.8-3,5.8,17.3-1.5,10.5Z"/>
  <path d="M115.8,136.8c-6.4,1.4-3.8-3.8-1.5-7.3l1.5,7.3Z"/>
</svg>