<?xml version="1.0" encoding="UTF-8"?>
<svg id="Capa_1" xmlns="http://www.w3.org/2000/svg" version="1.1" viewBox="0 0 286.4 275.1">
  <!-- Generator: Adobe Illustrator 29.0.0, SVG Export Plug-In . SVG Version: 2.1.0 Build 186)  -->
  <path d="M66.6,142.3c-.3-2.3-2.3-7.4-3.4-9.4-4.6-8.8-12.6-13.5-20.1-17.9.4-8-.5-16.8,0-24.7,1-16,15.8-26.8,27.3-30.3,12.4-3.8,37.7-3.9,50.1.1s16.4,8.3,21.8,16.1v77.5h-75.2s-.6-.7-.6-.7c0-3.1.4-7.9,0-10.7Z"/>
  <path d="M144,76.3c5.8-8.1,13.8-13.5,22.2-16.1,12.7-4,37.3-4,50,0s26,14.3,27,30.2c.5,7.9-.4,16.7,0,24.7-3.1,2.2-6.5,3.7-9.5,6-4.8,3.6-14,14.1-14,21.3v10.7c0,0-.6.7-.6.7h-75.2v-77.5Z"/>
  <rect x="65.9" y="188" width="154.7" height="27"/>
  <path d="M58.7,214.9H17.6v-99.1c12.7-.4,28.5,4.6,36.9,17s4.2,8.1,4.2,10.4v71.6Z"/>
  <path d="M268.8,115.8v99.1h-41.1v-71.6c0-2.4,2.8-8.5,4.2-10.4,8.4-12.4,24.1-17.4,36.9-17Z"/>
  <path d="M65.9,175.8c1.3-10.8,9.4-14.5,17.3-15.3h120.8c5.2,1,11.9,2.8,14.6,8.9s1.9,6,1.9,6.4v9.2c0,0-.6.7-.6.7H66.5s-.6-.7-.6-.7c0-2.7-.3-6.7,0-9.2Z"/>
</svg>