<?xml version="1.0" encoding="UTF-8"?>
<svg id="Capa_1" xmlns="http://www.w3.org/2000/svg" version="1.1" viewBox="0 0 286.4 275.1">
  <!-- Generator: Adobe Illustrator 29.0.0, SVG Export Plug-In . SVG Version: 2.1.0 Build 186)  -->
  <path d="M16.1,148.6c1.9-22.8,23.2-42.9,45-43.7l37.6.2.7.9c.5,12.7,5.9,23.4,13.9,32.6-19.7,6.5-35.3,23.8-39.3,45.2-1.4,7.9-.9,15.8-1,23.8-7-.4-14.2-1.1-21.2-2.2-12.1-2-23.9-5.6-35.7-8.8,1-15.5-1.3-32.7,0-48Z"/>
  <path d="M124.6,145.3c11.3-1,28.3-.8,39.8-.1,21.5,1.3,40.5,18.9,44,41.1,2.4,15.4,0,32.6,1,48.3,0,.5,0,.9-.4,1.3-.7.8-8.6,4.1-10.2,4.6-32,11.7-72.2,9.1-104.5,0-1.8-.5-11.9-3.5-12.6-4.2s-.4-.8-.4-1.3c.9-15.8-1.5-33.1,1-48.6,3.6-21.5,21.4-39.3,42.4-41.1h-.1Z"/>
  <path d="M177.2,138.8c-.2-.6.2-.7.4-1.1,1.4-2.2,4-4.4,5.6-6.9,4.9-7.4,8-17,7.8-26h35.6c23,2.1,42,21.1,44.2,45.2l-.2,45.7c-3.9,2-7.9,3.8-12.1,5.2-9.8,3.4-21.6,5.6-31.8,6.7-1,.1-8.4.5-8.8.2-.8-.6-.2-15.4-.4-17.9-1.4-23.1-19-45-40.3-51.2h0Z"/>
  <path d="M140.9,64.6c30.5-3.2,52.3,30.1,37.2,58.3-13.9,25.8-49.2,26.6-64.5,1.8-14.8-24,0-57.2,27.3-60.1Z"/>
  <path d="M57.7,95.3c-20.6-15.2-20.5-47.9-.4-63.5,20.1-15.6,63.4-7.3,62.1,31.6-.2,5.3-6.6,6.1-8.8,8.7-3.6,4.3-7.4,11-9.1,16.4s0,7.3-5.1,10c-12.3,6.5-27.6,5-38.8-3.2h0Z"/>
  <path d="M234.8,36.6c9.9,11,12.5,28.9,6.7,42.6-8.4,20-31.3,29-50.3,19.7-1.7-12.7-5.5-26.3-16.5-32.1s-4.8-4.3-5-5.1c-1.3-4.3,2-12.4,4-16.3,12-24,43.3-28.6,61.1-8.8h0Z"/>
</svg>