<?xml version="1.0" encoding="UTF-8"?>
<svg id="Capa_1" xmlns="http://www.w3.org/2000/svg" version="1.1" viewBox="0 0 16 16">
  <!-- Generator: Adobe Illustrator 29.0.0, SVG Export Plug-In . SVG Version: 2.1.0 Build 186)  -->
  <defs>
    <style>
      .st0 {
        fill: #ff8000;
        fill-rule: evenodd;
      }
    </style>
  </defs>
  <path class="st0" d="M1.9.5C2.6-.2,3.7-.2,4.4.5c0,0,0,.1,0,.2l1.8,2.3c.3.4.4,1,.3,1.5l-.5,2.2c0,.2,0,.5.2.6l2.5,2.5c.2.2.4.2.6.2l2.2-.5c.5-.1,1.1,0,1.5.3l2.3,1.8c.8.6.9,1.9.2,2.6l-1,1c-.7.7-1.8,1.1-2.9.7-2.6-.9-5-2.4-7-4.4C2.6,9.5,1.1,7.1.1,4.4-.3,3.4.1,2.3.8,1.5L1.9.5Z"/>
</svg>